<?xml version="1.0" encoding="utf-8"?>
<!DOCTYPE svg PUBLIC "-//W3C//DTD SVG 20010904//EN" "http://www.w3.org/TR/2001/REC-SVG-20010904/DTD/svg10.dtd">
<svg version="1.0" xmlns="http://www.w3.org/2000/svg" width="600pt" height="450pt" viewBox="0 0 600 450" style="" preserveAspectRatio="xMidYMid meet">
<g fill="#A8A9ADFF" stroke="#A8A9ADFF">
<path d="M 341.925 150.430 C 335.723 151.731 331.878 152.999 312.500 160.134 C 302.582 163.786 300.193 163.568 283.853 157.526 C 263.704 150.076 252.476 148.556 238.877 151.439 C 210.505 157.452 188.493 183.292 182.509 217.609 C 180.573 228.713 180.584 248.855 182.532 261.000 C 189.951 307.236 217.966 355.598 244.615 368.176 C 255.000 373.078 258.225 372.970 275.908 367.128 C 303.510 358.010 308.808 357.909 332.471 366.042 C 346.459 370.849 347.968 371.165 355.471 370.844 C 361.870 370.570 364.710 369.906 369.462 367.573 C 381.576 361.625 397.211 342.583 408.522 320.000 C 413.332 310.398 420.002 295.379 419.998 294.161 C 419.996 293.798 417.576 292.236 414.618 290.691 C 399.418 282.748 386.296 265.915 382.420 249.387 C 380.019 239.149 380.880 221.734 384.230 212.758 C 388.950 200.110 398.286 187.855 408.250 181.228 C 410.313 179.857 412.000 178.274 412.000 177.711 C 412.000 177.148 408.288 173.037 403.750 168.575 C 394.632 159.610 385.200 154.226 373.823 151.491 C 364.617 149.278 349.768 148.784 341.925 150.430 "/></g>
<g fill="#A8A9ADFF" stroke="#A8A9ADFF">
<path d="M 347.547 80.538 C 327.933 85.918 309.448 103.386 302.432 123.171 C 300.529 128.538 299.044 139.781 299.751 143.478 L 300.279 146.241 308.009 145.793 C 318.780 145.170 328.699 140.409 338.062 131.370 C 351.322 118.568 357.876 104.925 358.774 88.250 L 359.273 79.000 355.886 79.089 C 354.024 79.139 350.271 79.790 347.547 80.538 "/></g>
</svg>
